<?xml version="1.0" encoding="UTF-8" standalone="no"?>
<svg
   xmlns:dc="http://purl.org/dc/elements/1.1/"
   xmlns:cc="http://creativecommons.org/ns#"
   xmlns:rdf="http://www.w3.org/1999/02/22-rdf-syntax-ns#"
   xmlns:svg="http://www.w3.org/2000/svg"
   xmlns="http://www.w3.org/2000/svg"
   width="512"
   height="512"
   viewBox="0 0 135.46666 135.46666"
   version="1.1"
   id="svg8">
  <defs
     id="defs2" />
  <metadata
     id="metadata5">
    <rdf:RDF>
      <cc:Work
         rdf:about="">
        <dc:format>image/svg+xml</dc:format>
        <dc:type
           rdf:resource="http://purl.org/dc/dcmitype/StillImage" />
        <dc:title></dc:title>
      </cc:Work>
    </rdf:RDF>
  </metadata>
  <path
     transform="matrix(1.1180217,0,0,1.1180217,-7.9897942,-12.165068)"
     d="m 61.65625,23.324219 c -0.477574,-0.02232 -1.062562,0.0068 -1.632812,0.07617 -0.570053,0.06934 -1.126724,0.18054 -1.542969,0.310547 -0.208123,0.065 -0.382708,0.135041 -0.496094,0.197265 -0.113386,0.06222 -0.152291,0.126238 -0.132813,0.08984 0.0528,-0.09865 0.01345,-0.03962 0.0059,0.04102 -0.0076,0.08064 -0.0126,0.205543 -0.01367,0.357422 -0.0022,0.303759 0.01071,0.724302 0.03711,1.222657 0.05279,0.99671 0.158013,2.303562 0.289063,3.65625 0.2621,2.705375 0.647744,5.648746 0.894531,6.560547 0.167478,0.618759 0.686598,1.441674 0.994141,1.683593 0.434122,0.34157 1.086106,0.534552 1.708984,0.535157 0.622878,6.04e-4 1.196215,-0.196215 1.498047,-0.498047 0.585776,-0.585775 0.812794,-0.892893 0.888672,-1.884766 0.07588,-0.991873 -0.07302,-2.646329 -0.412109,-5.611328 -0.331591,-2.899406 -0.533338,-4.522897 -0.712891,-5.433594 -0.08978,-0.455348 -0.17688,-0.729743 -0.25,-0.880859 -0.07312,-0.151116 -0.110759,-0.183462 -0.205078,-0.248047 -0.05662,-0.03877 -0.440395,-0.151513 -0.917969,-0.173828 z m -22.541016,6.816406 c -0.234149,0.150162 -2.924664,0.258684 -0.935546,0.289063 -0.644714,0.333393 -1.655669,1.0556 -2.47461,1.734374 -0.40947,0.339388 -0.775312,0.671526 -1.027344,0.931641 -0.126016,0.130058 -0.224125,0.242396 -0.279296,0.318359 -0.0018,0.0025 -2.75e-4,0.0033 -0.002,0.0059 0.01524,0.03288 0.02728,0.06161 0.05273,0.109375 0.07764,0.145699 0.197026,0.348872 0.347656,0.583984 0.301261,0.470224 0.72362,1.075603 1.1875,1.691407 0.947903,1.25836 2.452628,3.377715 3.359375,4.732421 2.056687,3.072731 3.061146,4.196173 4.105469,4.746094 1.44545,0.761144 3.656441,-0.06578 4.314453,-1.640625 0.250228,-0.598882 0.27573,-1.158026 0.0293,-1.894531 -0.246433,-0.736505 -0.789143,-1.635031 -1.675781,-2.767578 -0.823848,-1.052335 -2.685704,-3.465364 -4.144532,-5.369141 -0.725344,-0.946578 -1.43041,-1.82535 -1.976562,-2.472656 -0.273076,-0.323653 -0.506683,-0.589127 -0.679688,-0.773438 -0.0865,-0.09216 -0.159059,-0.164952 -0.207031,-0.208984 -0.04797,-0.04403 -0.115413,-0.06215 0.0059,-0.01563 z m 27.009766,0.154297 0.02539,3.023437 c 0.01651,1.953093 -0.01501,3.13079 -0.248047,4.041016 -0.233041,0.910226 -0.696564,1.516818 -1.398438,2.181641 -0.807282,0.764669 -1.475011,1.018322 -2.74414,1.037109 -1.460222,0.02168 -2.641113,-0.427459 -3.457032,-1.453125 -0.815918,-1.025666 -1.280215,-2.55089 -1.572265,-4.695312 -0.0898,-0.659348 -0.198801,-1.288628 -0.300781,-1.759766 -0.05099,-0.235569 -0.101693,-0.431784 -0.142579,-0.566406 -0.0019,-0.0062 -0.0021,-0.0077 -0.0039,-0.01367 -0.132536,0.01478 -0.331914,0.053 -0.582031,0.115234 -0.518642,0.129056 -1.234631,0.351924 -2.03711,0.634766 -1.604957,0.565684 -3.566156,1.370044 -5.107421,2.134765 -1.263069,0.626692 -1.992072,1.115535 -2.205079,1.388672 -0.106503,0.136569 -0.09685,0.156264 -0.08398,0.205078 0.01287,0.04881 0.0918,0.17908 0.294922,0.347657 0.559062,0.463984 1.141648,1.33913 1.673828,2.300781 0.532181,0.961651 0.981243,1.972702 1.125,2.742187 0.200636,1.073976 0.143969,1.807429 -0.234375,2.539063 -0.703204,1.35984 -2.34002,2.518674 -3.867187,2.75 -0.801921,0.121475 -1.560681,-0.0032 -2.335938,-0.492188 -0.775257,-0.488994 -1.593119,-1.30692 -2.724609,-2.595703 -0.481441,-0.548369 -0.963008,-1.047808 -1.341797,-1.402344 -0.189395,-0.177267 -0.354412,-0.318541 -0.470703,-0.40625 -0.03177,-0.02396 -0.0457,-0.03183 -0.06836,-0.04687 0.03196,0.0087 -0.05791,0.0256 -0.236328,0.160156 -0.207531,0.156513 -0.481177,0.401164 -0.792969,0.710937 -0.623583,0.619548 -1.403062,1.49775 -2.214843,2.488281 -1.623562,1.981063 -3.38481,4.424391 -4.359375,6.179688 -0.739416,1.331757 -1.523644,2.986834 -2.080078,4.320312 -0.278217,0.66674 -0.499696,1.256151 -0.628907,1.671876 -0.04535,0.145894 -0.06328,0.232692 -0.08398,0.326171 0.06982,0.01858 0.133425,0.03579 0.224609,0.05664 0.275978,0.06311 0.631855,0.132781 0.992188,0.189453 2.10265,0.330666 3.688647,1.075403 4.605469,2.181641 0.916821,1.106237 1.085416,2.58262 0.410156,4.080078 -0.459122,1.01816 -1.130561,1.754702 -2.126953,2.162109 -0.996392,0.407407 -2.275426,0.513774 -4.03711,0.447266 l -2.361328,-0.08789 -0.06445,0.988282 c -0.04373,0.674572 -0.04947,0.913472 0.126953,1.240234 0.176426,0.326762 0.618373,0.800016 1.513672,1.695312 4.601756,4.60176 11.5561,9.072836 18.666016,11.984375 6.122737,2.507275 13.977548,4.543949 20.644531,5.355469 3.35429,0.40829 16.715211,0.123116 19.882813,-0.419922 2.536037,-0.434763 5.817073,-1.236861 8.669921,-2.068359 1.426424,-0.415749 2.747416,-0.838185 3.8125,-1.224609 1.065085,-0.386425 1.888061,-0.749406 2.251951,-0.984376 0.25409,-0.164061 0.32398,-0.26966 0.32031,-0.259765 -0.004,0.0099 0.016,-0.0051 -0.0879,-0.199219 -0.23542,-0.439887 -0.31791,-1.023692 -0.34375,-1.666016 -0.0258,-0.642323 0.0253,-1.324858 0.17774,-1.892578 0.0958,-0.356859 0.32856,-0.634638 0.61914,-0.916015 0.29057,-0.281377 0.6505,-0.55217 1.03906,-0.794922 0.77712,-0.485505 1.63493,-0.875936 2.38477,-0.873047 0.62352,0.0024 1.7649,0.211019 2.71875,0.464844 0.64596,0.171901 1.11979,0.280927 1.37304,0.273437 0.12663,-0.0037 0.18711,-0.02596 0.23243,-0.05664 0.0453,-0.03068 0.0958,-0.08425 0.15429,-0.220703 0.11702,-0.272908 0.21096,-0.85476 0.25,-1.771485 0.0391,-0.916725 0.0369,-2.171982 0.0332,-3.845703 -0.0115,-5.213264 -0.0617,-5.707797 -0.97461,-9.355469 -0.53729,-2.146734 -1.61619,-5.3088 -2.42188,-7.105469 -0.66262,-1.477628 -1.76559,-3.501277 -2.8125,-5.238281 -0.52345,-0.868502 -1.0343,-1.66619 -1.4668,-2.289062 -0.40793,-0.587495 -0.74647,-0.988799 -0.90624,-1.136719 -0.0866,0.02978 -0.2534,0.110143 -0.48829,0.267578 -0.48898,0.327741 -1.250532,0.944811 -2.357418,1.904297 -1.60535,1.391575 -2.687154,2.224081 -3.671875,2.646484 -0.984722,0.422403 -1.879079,0.378881 -2.855469,0.05664 -0.67907,-0.224109 -1.47337,-0.727473 -1.955078,-1.240234 -0.335767,-0.357407 -0.581803,-0.721259 -0.705078,-1.207032 -0.123275,-0.485773 -0.144531,-1.0665 -0.144531,-1.976562 V 45.21875 a 0.43334827,0.43334827 0 0 1 0.126953,-0.306641 l 2.68164,-2.693359 2.363282,-2.373047 -0.363282,-0.335937 c -0.54482,-0.500613 -1.925039,-1.454695 -3.453125,-2.402344 -1.528085,-0.947649 -3.22663,-1.910568 -4.46875,-2.503906 C 81.075554,32.188693 75.349582,30.759349 69.566406,30.46875 Z m 34.56641,7.117187 c -0.10136,0.02675 -1.449926,0.964274 -0.56446,0.367188 -0.383217,0.279946 -0.871386,0.674531 -1.361325,1.107422 -1.001379,0.884787 -3.013114,2.637086 -4.476563,3.898437 -1.9296,1.663125 -3.043755,3.003934 -3.40625,4.009766 -0.181247,0.502916 -0.188117,0.907901 -0.05859,1.287109 0.129523,0.379208 0.41249,0.75359 0.892578,1.13086 0.226904,0.178309 1.037639,0.438281 1.650391,0.441406 0.616477,0.0034 0.906143,-0.03395 1.601562,-0.494141 0.695419,-0.460195 1.738379,-1.362779 3.583984,-3.017578 2.385816,-2.139169 3.794036,-3.443389 4.552736,-4.261719 0.37935,-0.409164 0.59226,-0.699646 0.68164,-0.875 0.0894,-0.175353 0.0714,-0.184617 0.0566,-0.224609 -0.0276,-0.07465 -0.24685,-0.422543 -0.54687,-0.791016 -0.30003,-0.368473 -0.68413,-0.794792 -1.07422,-1.195312 -0.3901,-0.40052 -0.78784,-0.778239 -1.10547,-1.044922 -0.15882,-0.133342 -0.29777,-0.23892 -0.39649,-0.302734 -0.0627,-0.04054 -0.0307,-0.0323 -0.0293,-0.03516 z M 50.572266,54.5625 c 2.193479,0.08949 4.384296,0.828162 6.419922,2.1875 0.614216,0.410162 1.099892,0.684141 1.458984,0.833984 0.359092,0.149844 0.576339,0.15915 0.662109,0.136719 0.545006,-0.14252 1.092172,0.083 1.332031,0.505859 0.23986,0.42286 0.174586,0.991446 -0.1875,1.427735 -0.04604,0.05547 -0.06595,0.05677 -0.0098,0.300781 0.05619,0.244012 0.226292,0.66045 0.535156,1.275391 1.623768,3.232851 1.391063,7.868844 -0.548828,10.927734 -0.235859,0.37191 -0.450981,0.761966 -0.603516,1.078125 -0.07627,0.158079 -0.137904,0.298464 -0.175781,0.402344 -0.03788,0.10388 -0.04297,0.191751 -0.04297,0.132812 0,0.234903 -0.09896,0.363638 -0.193359,0.486328 -0.0944,0.122691 -0.209436,0.234632 -0.34375,0.347657 -0.268628,0.22605 -0.614724,0.452136 -1,0.646484 -0.712635,0.359468 -1.982629,1.005851 -2.822266,1.433594 -1.031664,0.52556 -2.543998,0.82643 -4.091796,0.933594 -1.547799,0.107163 -3.113107,0.01663 -4.248047,-0.353516 -1.683886,-0.549164 -3.778439,-1.727389 -4.673829,-2.716797 -0.276165,-0.305148 -0.733716,-0.5 -1.292968,-0.5 -0.673263,0 -1.243967,-0.184992 -1.544922,-0.644531 -0.300956,-0.45954 -0.20469,-1.067772 0.134766,-1.611328 0.11551,-0.184963 0.146049,-0.275123 0.126953,-0.525391 -0.0191,-0.250267 -0.123123,-0.652673 -0.335938,-1.279297 -0.3474,-1.022925 -0.564117,-2.610218 -0.570312,-4.033203 -0.0097,-2.115737 0.142332,-2.72595 1.25,-4.93164 0.810725,-1.614375 1.119805,-2.696508 1.076171,-3.142579 -0.06314,-0.645605 0.0034,-1.200904 0.429688,-1.527343 0.213151,-0.16322 0.491077,-0.215742 0.75,-0.1875 0.258923,0.02824 0.516065,0.123429 0.789062,0.269531 0.275217,0.147296 0.375937,0.175015 0.511719,0.158203 0.135782,-0.01681 0.376034,-0.117278 0.792969,-0.363281 2.030965,-1.198299 4.222671,-1.757453 6.416016,-1.667969 z m -0.271485,1.966797 c -1.11838,0.01603 -2.488659,0.270607 -3.589843,0.615234 -0.550593,0.172314 -1.035274,0.367104 -1.38086,0.554688 -0.308013,0.167189 -0.43274,0.318466 -0.464844,0.351562 0.01119,0.02375 0.01233,0.03144 0.03125,0.06445 0.08541,0.149017 0.248381,0.376024 0.478516,0.658204 0.460271,0.564359 1.19245,1.354755 2.177734,2.34375 0.82771,0.830825 1.593261,1.586923 2.158204,2.132812 0.282471,0.272945 0.515416,0.49325 0.677734,0.642578 0.01036,0.0095 0.01364,0.01253 0.02344,0.02148 0.0082,-0.0056 0.01097,-0.0078 0.01953,-0.01367 0.177039,-0.122051 0.429498,-0.300777 0.732421,-0.515625 0.605848,-0.429698 1.41337,-1.008837 2.242188,-1.607422 1.553016,-1.121612 3.048267,-2.220359 3.509766,-2.578125 -0.09879,-0.110204 -0.233138,-0.24722 -0.455078,-0.419922 C 55.931826,58.367569 55.122665,57.861247 54.25,57.431641 52.568895,56.60403 52.127172,56.503053 50.300781,56.529297 Z m -32.103515,1.917969 c 0.04545,-0.02432 -0.137893,0.149806 -0.271485,0.466796 -0.133591,0.316991 -0.265605,0.760611 -0.365234,1.267579 -0.09558,0.486324 -0.196163,0.968923 -0.28125,1.357421 -0.08509,0.388499 -0.144129,0.653097 -0.197266,0.816407 0.03429,-0.105385 0.0062,0.01603 0.0625,0.15625 0.05628,0.140217 0.155704,0.31554 0.273438,0.460937 0.127665,0.15766 0.398435,0.338988 1.09375,0.558594 0.695314,0.219606 1.783443,0.47039 3.453125,0.806641 2.350245,0.4733 5.008907,1.052751 5.964844,1.304687 0.934245,0.246212 1.684603,0.300208 2.259765,0.191406 0.575162,-0.108801 0.980655,-0.360162 1.308594,-0.794922 0.558807,-0.740831 0.731143,-1.503747 0.597656,-2.191406 -0.133487,-0.687658 -0.576179,-1.319816 -1.365234,-1.779297 -0.09458,-0.05508 -0.405978,-0.181842 -0.822266,-0.3125 -0.416288,-0.130658 -0.94982,-0.279056 -1.556641,-0.433593 -1.213641,-0.309075 -2.723486,-0.645467 -4.210937,-0.947266 -1.487451,-0.301799 -2.955608,-0.569664 -4.085937,-0.736328 -0.565165,-0.08333 -1.045621,-0.140356 -1.394532,-0.166016 -0.174455,-0.01283 -0.316999,-0.01858 -0.410156,-0.01563 -0.09316,0.003 -0.155192,0.04505 -0.05273,-0.0098 z m 70.128906,0.445312 c 0.528858,-0.032 1.0565,-0.02619 1.580078,0.01563 2.094412,0.167274 4.123545,0.92521 5.933594,2.253906 0.607915,0.446123 1.004203,0.691399 1.292968,0.798829 0.288766,0.107429 0.475399,0.108433 0.822266,0.03906 0.414297,-0.08286 0.685025,-0.159894 1.023438,-0.02344 0.169206,0.06823 0.3233,0.236171 0.382812,0.394532 0.05951,0.15836 0.0637,0.297945 0.0625,0.441406 -0.0034,0.42399 -0.117047,0.868969 -0.339844,1.220703 0.0472,-0.07452 -0.01685,0.100469 0.05859,0.414063 0.07545,0.313593 0.236295,0.756079 0.478516,1.285156 1.514236,3.307548 1.317406,7.495302 -0.503906,10.548828 -0.431524,0.723483 -0.87073,1.737928 -0.923829,2 -0.06451,0.318459 -0.195112,0.607309 -0.416015,0.824219 -0.220904,0.216909 -0.517601,0.343846 -0.833985,0.388672 -0.225691,0.03197 -1.098633,0.393018 -1.654297,0.759765 -0.651931,0.430273 -1.704022,0.952136 -2.451171,1.214844 -3.90631,1.373541 -7.886872,0.667239 -11.34961,-1.996094 -0.562448,-0.432601 -0.978203,-0.702383 -1.287109,-0.839844 -0.308906,-0.13746 -0.491162,-0.152544 -0.69336,-0.113281 -0.620698,0.120521 -1.243822,-0.05243 -1.625,-0.511719 -0.203949,-0.245765 -0.378687,-0.530237 -0.365234,-0.867187 0.01345,-0.33695 0.163807,-0.605682 0.378906,-0.980469 0.205069,-0.357305 0.266233,-0.520143 0.269532,-0.667968 0.0033,-0.147826 -0.06111,-0.376949 -0.251954,-0.824219 -1.293373,-3.031162 -0.790691,-7.590016 1.126954,-10.445313 0.69184,-1.030154 0.779976,-1.322232 0.666015,-2.171875 -0.06654,-0.496074 -0.108619,-0.82962 0.01172,-1.169922 0.06017,-0.17015 0.180693,-0.330167 0.320312,-0.433593 0.13962,-0.103427 0.287032,-0.15999 0.441407,-0.208985 0.533448,-0.169308 1.125531,-0.06876 1.601562,0.228516 0.215049,0.134301 0.272089,0.15418 0.455078,0.128906 0.182989,-0.02527 0.512603,-0.150389 1.052735,-0.416015 1.549405,-0.761953 3.149754,-1.191101 4.736328,-1.28711 z m -45.90625,1.441406 c -0.950381,1.224974 -0.280039,0.127925 -0.976563,1.482422 -0.740721,1.508428 -0.816406,1.929484 -0.816406,4.314453 0,1.634122 0.204667,3.148993 0.390625,3.589844 0.107046,0.253769 0.23785,0.454186 0.330078,0.552735 0.01181,0.01262 0.0095,0.0086 0.01953,0.01758 0.07906,-0.0394 0.188707,-0.09593 0.380859,-0.216797 0.240481,-0.151268 0.543528,-0.352472 0.882812,-0.587891 0.67857,-0.470838 1.505251,-1.073764 2.302735,-1.675781 0.797484,-0.602017 1.568193,-1.204398 2.132812,-1.671875 0.28231,-0.233738 0.513994,-0.434397 0.666016,-0.578125 0.02086,-0.01972 0.02526,-0.02747 0.04297,-0.04492 -0.02202,-0.03219 -0.03266,-0.05201 -0.0625,-0.0918 -0.132166,-0.17623 -0.334809,-0.416658 -0.582032,-0.691406 -0.494446,-0.549496 -1.16984,-1.239735 -1.861328,-1.91211 -0.691488,-0.672374 -1.401544,-1.327703 -1.966797,-1.808593 -0.282626,-0.240445 -0.531175,-0.437561 -0.71289,-0.566407 -0.07391,-0.0524 -0.124669,-0.0849 -0.169922,-0.111328 z m 16.023437,0.716797 -3.105468,2.246094 c -0.940432,0.680323 -1.795119,1.32677 -2.410157,1.816406 -0.307518,0.244818 -0.555383,0.451635 -0.71875,0.597657 -0.0038,0.0034 -0.0041,0.0045 -0.0078,0.0078 0.01243,0.01562 0.0156,0.02215 0.0293,0.03906 0.149949,0.185097 0.374162,0.448333 0.652343,0.761719 0.556364,0.626772 1.32703,1.462592 2.175782,2.351563 0.846128,0.886221 1.655428,1.679898 2.267578,2.240234 0.306075,0.280168 0.563429,0.502897 0.74414,0.642578 0.03497,0.02703 0.04767,0.03427 0.07617,0.05469 0.07612,-0.08409 0.174848,-0.218255 0.279297,-0.386719 0.210093,-0.338854 0.445536,-0.815204 0.666016,-1.341797 0.440959,-1.053185 0.820233,-2.327096 0.894531,-3.146484 0.08493,-0.936664 -0.02289,-2.089515 -0.263672,-3.125 -0.24078,-1.035486 -0.629888,-1.962286 -1.001953,-2.417969 z m 30.650391,0.01563 c -2.513712,0 -3.207996,0.100752 -4.351562,0.628906 -0.377716,0.174442 -0.722885,0.372606 -0.957032,0.53711 -0.07217,0.05071 -0.107349,0.08502 -0.154297,0.125 0.01668,0.02381 0.02304,0.0351 0.04297,0.0625 0.128375,0.176548 0.320552,0.42343 0.554688,0.71289 0.468271,0.578922 1.10436,1.332105 1.761718,2.087891 0.657359,0.755786 1.336387,1.516678 1.890625,2.113281 0.27712,0.298302 0.522777,0.554717 0.716797,0.748047 0.194021,0.19333 0.361085,0.33442 0.375,0.34375 -0.01911,-0.01282 0.12431,-0.01166 0.126953,-0.01367 0.184332,-0.139989 1.73497,-1.303397 3.466797,-2.603515 0.962182,-0.722324 1.731959,-1.352877 2.242188,-1.824219 0.255114,-0.235671 0.44587,-0.43321 0.554687,-0.568359 0.01819,-0.02259 0.01791,-0.02833 0.03125,-0.04687 -0.01001,-0.01393 0.0016,0.0047 -0.01172,-0.0098 -0.08272,-0.08986 -0.214724,-0.212748 -0.376953,-0.347656 -0.324457,-0.269817 -0.773412,-0.592732 -1.253906,-0.890625 -0.881836,-0.546703 -1.29412,-0.792138 -1.84375,-0.917969 -0.54963,-0.125831 -1.3076,-0.136719 -2.814453,-0.136719 z m -7.703125,3.269532 c -0.789656,0.944171 -0.182786,0.09746 -0.775391,1.035156 -0.440492,0.717178 -0.886943,1.633576 -1.09375,2.3125 -0.221068,0.725747 -0.33002,1.994731 -0.298828,3.210937 0.03119,1.216206 0.214978,2.41606 0.449219,2.957031 0.128455,0.296661 0.28145,0.5437 0.398437,0.681641 0.023,0.02711 0.02644,0.02731 0.04492,0.04492 0.08155,-0.04207 0.169516,-0.08544 0.351563,-0.197266 0.246813,-0.151604 0.562126,-0.354692 0.917969,-0.591797 0.711684,-0.474208 1.588878,-1.083025 2.439453,-1.689453 0.850574,-0.606427 1.675335,-1.211239 2.283203,-1.677734 0.303934,-0.233248 0.55441,-0.432084 0.720703,-0.574219 0.0101,-0.0086 0.01201,-0.01131 0.02148,-0.01953 -0.01732,-0.02327 -0.0244,-0.0342 -0.04492,-0.06055 -0.141668,-0.181899 -0.355337,-0.432815 -0.615235,-0.722656 -0.519795,-0.579682 -1.223528,-1.318542 -1.941406,-2.042969 -0.717879,-0.724426 -1.45097,-1.434469 -2.025391,-1.958984 -0.28721,-0.262258 -0.536631,-0.478207 -0.716797,-0.621094 -0.05038,-0.03995 -0.07753,-0.05872 -0.115234,-0.08594 z m 15.960937,1.18164 c 0.08188,-0.09158 -3.395628,2.092741 -0.882812,0.533203 -0.585479,0.376138 -1.350306,0.891033 -2.130859,1.431641 -0.780554,0.540608 -1.577689,1.106893 -2.232422,1.589844 -0.647321,0.477482 -1.160442,0.884091 -1.339844,1.054687 0.0087,0.02626 0.04778,0.136024 0.208984,0.349609 0.350777,0.464763 1.136269,1.287122 2.53125,2.6875 0.873049,0.876426 1.716546,1.665842 2.363282,2.222657 0.323367,0.278407 0.599013,0.498787 0.794921,0.638672 0.06199,0.04426 0.0963,0.06364 0.138672,0.08984 -0.0054,-0.01796 0.08141,-0.06011 0.232422,-0.271484 0.183775,-0.257231 0.397069,-0.635066 0.59961,-1.064453 0.405082,-0.858774 0.774583,-1.940514 0.90625,-2.773438 0.181634,-1.149003 0.0274,-2.879122 -0.298828,-4.27539 -0.163115,-0.698134 -0.370149,-1.318542 -0.576172,-1.732422 -0.103012,-0.20694 -0.207655,-0.36165 -0.283204,-0.441406 -0.0462,-0.04877 -0.02816,-0.03637 -0.03125,-0.03906 z m -47.558593,1.81836 -1.166016,0.820312 v -0.002 c -1.346782,0.947557 -2.810565,2.021174 -3.955078,2.888672 -0.572257,0.433749 -1.065473,0.817373 -1.421875,1.105469 -0.178201,0.144047 -0.322228,0.263404 -0.421875,0.351562 -0.01347,0.01192 -0.0032,0.0014 -0.01563,0.01367 0.03646,0.05753 0.07552,0.117931 0.160156,0.21289 0.226107,0.253692 0.599578,0.587844 1.039063,0.925782 0.878969,0.675875 2.038153,1.379103 2.841797,1.667968 2.267866,0.815172 5.202749,0.678369 7.460937,-0.355468 0.45814,-0.20974 0.898093,-0.457863 1.224609,-0.677735 0.163259,-0.109936 0.29784,-0.212621 0.386719,-0.292968 0.08888,-0.08035 0.125552,-0.159397 0.09961,-0.0918 -0.04585,0.119478 0.0037,0.08734 -0.07422,-0.05859 -0.07789,-0.145931 -0.238717,-0.378486 -0.484375,-0.677734 -0.491316,-0.598498 -1.320437,-1.476691 -2.541016,-2.697266 z m 38.642578,4.439453 c -1.348488,0.822898 -0.38708,0.215428 -1.304688,0.84375 -0.727902,0.507765 -1.623428,1.161731 -2.492187,1.814453 -0.86876,0.652721 -1.710474,1.304551 -2.332031,1.810547 -0.310779,0.252997 -0.567543,0.470915 -0.738282,0.626953 -0.04454,0.04071 -0.06405,0.06071 -0.0957,0.0918 1.83e-4,2.76e-4 -1.83e-4,0.0017 0,0.002 0.05799,0.08758 0.164573,0.210983 0.306641,0.349609 0.285035,0.278131 0.714416,0.615647 1.212891,0.953125 0.996948,0.674956 2.283012,1.355674 3.308593,1.695313 0.08807,0.02911 0.568397,0.09807 1.128907,0.121093 0.560509,0.02302 1.239637,0.0207 1.888671,-0.01172 1.864319,-0.09306 2.637718,-0.277819 3.923829,-0.9375 0.448034,-0.229811 0.87059,-0.484761 1.179687,-0.699219 0.14368,-0.09969 0.255482,-0.187341 0.335937,-0.257813 -0.02574,-0.04145 -0.03849,-0.06901 -0.07812,-0.125 C 94.531056,77.842776 94.292923,77.548784 94,77.208984 93.414155,76.529386 92.603016,75.662214 91.771484,74.818359 90.939953,73.974504 90.085519,73.150984 89.417969,72.558594 89.084194,72.262399 88.796588,72.023913 88.591797,71.875 c -0.07033,-0.05114 -0.111917,-0.07275 -0.15625,-0.09961 z m -63.275391,1.707031 c -0.0017,0.310506 0.02696,0.750275 0.08398,1.277344 0.115264,1.065371 0.341633,2.483815 0.630859,3.99414 0.578452,3.020651 1.418463,6.432094 2.09375,8.142578 1.311256,3.321394 4.034792,8.25617 5.320312,9.738282 0.160145,-0.509247 0.356411,-1.787725 0.654297,-4.136719 0.288212,-2.272715 0.717644,-5.362304 0.957032,-6.884766 0.365238,-2.322887 0.521962,-3.407547 0.332031,-4.005859 -0.09497,-0.299156 -0.261215,-0.52645 -0.609375,-0.830078 -0.34816,-0.303628 -0.869446,-0.66025 -1.580078,-1.158203 -1.381826,-0.968277 -3.791865,-2.848189 -5.396485,-4.205079 -0.789449,-0.667561 -1.529374,-1.252105 -2.076172,-1.652343 -0.172708,-0.126418 -0.282549,-0.194336 -0.410156,-0.279297 z m 80.712894,5.757812 c -0.81322,0 -1.61182,0.478534 -2.11719,1.150391 -0.50537,0.671857 -0.69142,1.488169 -0.41406,2.140625 0.23249,0.546918 0.46101,0.852848 1.11523,1.242188 0.65422,0.389339 1.7398,0.816896 3.53906,1.439453 3.69284,1.277748 5.78881,2.01334 6.99219,2.476562 0.60169,0.231611 0.97954,0.393266 1.24024,0.535156 0.0943,0.05134 0.11998,0.136363 0.19531,0.19336 0.0906,-0.117164 0.19534,-0.254362 0.33398,-0.50586 0.35657,-0.646836 0.78504,-1.632514 1.09961,-2.617187 0.35469,-1.110269 0.51545,-1.717218 0.51953,-2.001953 0.002,-0.142368 -0.0168,-0.192088 -0.0605,-0.265625 -0.0438,-0.07354 -0.136,-0.176481 -0.29493,-0.320313 0.0319,0.02883 -0.0319,-0.02148 -0.1289,-0.06836 -0.0969,-0.04688 -0.23594,-0.105265 -0.4043,-0.171875 -0.33672,-0.133221 -0.7966,-0.296445 -1.33594,-0.476563 -1.07866,-0.360235 -2.47787,-0.787863 -3.90039,-1.197265 -1.42251,-0.409402 -2.86843,-0.802234 -4.04101,-1.089844 -0.58629,-0.143805 -1.10481,-0.26087 -1.51367,-0.341797 -0.40887,-0.08093 -0.72714,-0.121094 -0.82422,-0.121094 z m -67.619144,3.958985 -0.05273,0.347656 c -0.07366,0.475366 -0.579885,4.522417 -1.105469,8.869141 l -0.931641,7.695314 1.47461,1.49219 c 0.437087,0.44258 0.870758,0.84325 1.207031,1.125 0.159584,0.1337 0.29214,0.23693 0.390625,0.30468 0.10482,-0.0896 0.255031,-0.2309 0.427734,-0.4082 0.345407,-0.35461 0.78883,-0.85055 1.236329,-1.39258 0.979952,-1.18695 1.805022,-1.976594 2.705078,-2.445311 0.900056,-0.468716 1.855738,-0.586967 2.984375,-0.478515 0.447921,0.04304 0.809307,0.04492 1.03125,0.01758 0.07753,-0.0096 0.108353,-0.0226 0.144531,-0.0332 0.01077,-0.04788 0.01411,-0.06002 0.03125,-0.15625 0.02893,-0.16239 0.06284,-0.382017 0.101563,-0.638672 0.07744,-0.513311 0.169937,-1.177587 0.255859,-1.867188 0.17286,-1.387295 0.45996,-3.643566 0.636719,-5.015625 0.09356,-0.726221 0.162128,-1.262976 0.173828,-1.644531 0.0117,-0.381555 -0.03187,-0.58386 -0.115235,-0.724609 -0.08337,-0.14075 -0.237618,-0.274043 -0.576171,-0.445313 -0.338554,-0.171269 -0.839004,-0.365221 -1.517579,-0.628906 -3.340108,-1.297927 -5.996058,-2.495862 -7.55664,-3.416016 z m 65.808594,3.228515 c -0.91262,0.201752 -2.82278,0.795095 -4.523438,1.378907 -0.850326,0.291905 -1.652939,0.582409 -2.261718,0.820312 -0.30439,0.118952 -0.561513,0.22458 -0.746094,0.308594 -0.184581,0.08401 -0.33082,0.195668 -0.259766,0.128906 0.07108,-0.06679 0.02616,-0.03486 -0.0039,0.04297 -0.03006,0.07783 -0.06929,0.204657 -0.111328,0.367187 -0.08408,0.325061 -0.182402,0.800231 -0.289062,1.41211 -0.213321,1.223757 -0.464955,2.995792 -0.748047,5.285156 -0.474353,3.836075 -0.942579,7.541415 -1.046875,8.277345 -0.04073,0.28735 -0.03869,0.46694 -0.03711,0.63867 0.160237,-0.1043 0.351586,-0.24214 0.587891,-0.43164 0.526021,-0.42183 1.204116,-1.02749 1.9375,-1.73047 1.466767,-1.40596 3.165146,-3.203883 4.410153,-4.732421 1.50025,-1.84189 3.21002,-4.534398 4.45313,-6.841797 0.62155,-1.153699 1.1286,-2.213891 1.43359,-3.011718 0.1525,-0.398914 0.25322,-0.734951 0.29492,-0.962891 0.0417,-0.22794 -0.0413,-0.320739 0.0547,-0.205078 -0.11072,-0.133411 -0.70478,-0.453995 -1.35937,-0.617187 -0.6546,-0.163193 -1.39299,-0.213654 -1.78516,-0.126954 z m 12.56055,2.1875 c 0.29109,0.344836 0.0659,-0.03749 0,0 z m -64.433597,0.482422 c 0.162442,-0.298937 -0.665704,2.137906 -0.107422,0.726563 0,0.304019 -0.05066,0.850416 -0.128906,1.558593 -0.07825,0.708178 -0.184895,1.555618 -0.302734,2.378907 -0.775873,5.420534 -1.30586,9.475761 -1.595703,12.220701 -0.144922,1.37248 -0.229749,2.41826 -0.25586,3.13477 -0.01306,0.35825 -0.01186,0.63651 0.002,0.81836 0.01382,0.18185 0.107293,0.28672 -0.0059,0.15039 -0.02801,-0.0338 0.06292,0.0539 0.207031,0.13672 0.144107,0.0829 0.348102,0.18556 0.59375,0.29882 0.491297,0.22653 1.153387,0.49672 1.904297,0.7793 1.50182,0.56516 3.360611,1.17993 4.953125,1.60938 0.561357,0.15139 1.176841,0.28315 1.707031,0.37304 0.53019,0.0899 0.997995,0.13283 1.158203,0.12305 a 0.43334827,0.43334827 0 0 1 0.002,0 l 0.550782,-0.0332 0.9375,-7.13086 c 0.541371,-4.1186 1.213321,-8.95062 1.498047,-10.761721 0.139963,-0.890211 0.248049,-1.753521 0.308593,-2.416016 0.03027,-0.331247 0.04785,-0.611704 0.05273,-0.816406 0.0024,-0.102351 0.0014,-0.185924 -0.002,-0.240235 -0.0033,-0.05431 -0.01978,-0.09298 0.0039,-0.03125 0.04002,0.104294 -0.05034,-0.04592 -0.248047,-0.140624 -0.197706,-0.09471 -0.47487,-0.183025 -0.751953,-0.226563 -0.701972,-0.110309 -2.368906,-0.517388 -3.808594,-0.921875 -2.221476,-0.624129 -3.889851,-1.059906 -5.03125,-1.310547 -0.570699,-0.12532 -1.011295,-0.203956 -1.310547,-0.238281 -0.149625,-0.01716 -0.265032,-0.02178 -0.332031,-0.01953 -0.067,0.0022 -0.08525,0.03241 0.002,-0.02148 z M 92.765625,90.125 c -0.228554,0.0051 -0.539535,0.04514 -0.847656,0.119141 -0.741366,0.178046 -3.091808,0.565731 -5.34375,0.892578 -1.118202,0.162296 -2.157995,0.330052 -2.925781,0.470703 -0.383894,0.07032 -0.700331,0.135212 -0.919922,0.185547 -0.07416,0.017 -0.116977,0.02985 -0.166016,0.04297 -0.02175,0.07925 -0.04798,0.184046 -0.07617,0.326171 -0.06276,0.316428 -0.134751,0.762542 -0.208984,1.291016 -0.148468,1.056949 -0.307506,2.443126 -0.445313,3.826172 -0.137807,1.383046 -0.253068,2.765503 -0.314453,3.814453 -0.03069,0.52448 -0.04907,0.96608 -0.04883,1.27539 1.01e-4,0.12873 0.0046,0.21776 0.0098,0.29102 0.0361,0.016 0.07176,0.0412 0.201172,0.0742 0.179767,0.0459 0.409479,0.0762 0.615234,0.0762 1.677187,0 3.176993,1.22847 4.183594,3.23047 0.480442,0.95554 1.046165,2.05713 1.242187,2.41796 0.113373,0.2087 0.205281,0.34117 0.25,0.38477 0.04472,0.0436 0.0017,0.0266 0.05273,0.0234 0.102155,-0.006 0.578262,-0.21549 1.408203,-0.7168 0.849682,-0.51322 1.274023,-1.0428 1.328125,-1.31641 0.301278,-1.52362 0.885548,-5.77096 1.361328,-9.630855 0.23789,-1.929948 0.450631,-3.76933 0.589844,-5.134766 0.06961,-0.682718 0.12129,-1.248605 0.148437,-1.642578 0.0089,-0.129317 0.01016,-0.206149 0.01367,-0.294922 -0.03883,-0.0017 -0.06016,-0.0069 -0.107422,-0.0059 z m -14.714844,2.140625 c -1.223698,-0.0238 -2.918298,-0.02369 -4.783203,0.0059 -2.507944,0.03972 -4.217399,0.0922 -5.302734,0.167969 -0.542668,0.03789 -0.932808,0.08267 -1.169922,0.128906 -0.08007,0.01561 -0.112654,0.02819 -0.154297,0.04102 -0.0058,0.02985 -0.01061,0.04919 -0.01758,0.08789 -0.02882,0.1601 -0.06522,0.390635 -0.109375,0.68164 -0.08831,0.582011 -0.203734,1.403923 -0.337891,2.402344 -0.268314,1.996843 -0.612159,4.70274 -0.964843,7.63086 -0.531912,4.41608 -0.833171,7.09037 -0.958985,8.67578 -0.06291,0.79271 -0.08214,1.31683 -0.06641,1.625 0.0058,0.11375 0.01736,0.16311 0.02734,0.21484 0.09292,0.0118 0.218035,0.0229 0.382812,0.0332 0.356403,0.0222 0.856528,0.0398 1.447266,0.0488 1.181476,0.0181 2.732096,0.0102 4.294922,-0.0176 1.562826,-0.0278 3.13834,-0.0756 4.373047,-0.13672 0.617353,-0.0305 1.150681,-0.0657 1.548828,-0.10156 0.398146,-0.0359 0.72067,-0.10557 0.679687,-0.0898 0.03298,-0.0127 0.189153,-0.20235 0.171875,-0.57617 -0.01889,-0.40898 0.03736,-1.20109 0.136719,-2.33008 0.09936,-1.12899 0.246426,-2.56243 0.419922,-4.12304 0.346991,-3.12123 0.803133,-6.75008 1.208984,-9.462895 0.206548,-1.38059 0.393672,-2.662257 0.529297,-3.615234 0.06781,-0.476489 0.122419,-0.870419 0.160156,-1.152344 0.0044,-0.03296 0.0058,-0.04829 0.0098,-0.07813 -0.03495,-0.0028 -0.04626,-0.0051 -0.08594,-0.0078 -0.331896,-0.02244 -0.827604,-0.04083 -1.439453,-0.05273 z m -32.480469,8.222655 c -0.271006,-0.0179 -0.521713,0.0335 -0.80664,0.15625 -0.569616,0.2455 -1.2937,0.85529 -2.328125,1.95313 -1.38899,1.47414 -3.048884,3.45551 -4.355469,5.13867 -0.653293,0.84158 -1.218915,1.6089 -1.615234,2.19726 -0.19816,0.29419 -0.354919,0.54559 -0.455078,0.72852 -0.100159,0.18293 -0.117188,0.3598 -0.117188,0.2207 0,-0.10169 -0.0043,-0.0215 0.06641,0.082 0.07074,0.10357 0.192125,0.24763 0.34961,0.41016 0.314969,0.32507 0.775557,0.726 1.3125,1.125 0.508187,0.37764 1.033667,0.71332 1.455078,0.94141 0.210706,0.11404 0.397026,0.20114 0.53125,0.25195 0.09905,0.0375 0.10721,0.0353 0.103516,0.041 0.01036,-0.006 0.01536,-0.006 0.02539,-0.0137 0.07051,-0.0566 0.175297,-0.15179 0.302734,-0.27539 0.254875,-0.2472 0.601157,-0.61052 1.00586,-1.05664 0.809406,-0.89223 1.857827,-2.11818 2.943359,-3.45508 1.770724,-2.18074 2.758194,-3.43247 3.283203,-4.23437 0.52501,-0.8019 0.582032,-1.07861 0.582032,-1.54492 0,-0.72986 -0.107319,-1.22738 -0.3125,-1.58203 -0.205181,-0.35466 -0.515278,-0.6052 -1.048828,-0.82813 -0.360853,-0.15077 -0.650869,-0.23797 -0.921876,-0.25586 z m 35.980469,4.66406 c -0.455863,0.10969 -0.942939,0.40848 -1.447265,0.94532 -0.553801,0.58949 -0.729302,1.01271 -0.513672,2.07617 0.215629,1.06346 0.911417,2.70484 2.189453,5.33789 0.642337,1.32337 1.224305,2.55064 1.648437,3.46289 0.212066,0.45612 0.385275,0.83331 0.50586,1.10742 0.06029,0.13706 0.10808,0.24777 0.142578,0.33399 0.01725,0.0431 0.03071,0.0792 0.04297,0.11523 0.01225,0.0361 0.03516,0.0147 0.03516,0.18555 0,-0.11317 -0.01715,-0.0901 -0.0039,-0.0625 0.01325,0.0276 0.04178,0.0784 0.08008,0.13672 0.0766,0.11652 0.192262,0.26712 0.316406,0.40429 0.101117,0.11173 0.252861,0.22991 0.392578,0.3086 0.139717,0.0787 0.280984,0.10742 0.279297,0.10742 0.04308,-2e-5 0.430894,-0.0883 0.857422,-0.25586 0.426528,-0.1676 0.936459,-0.40169 1.425781,-0.65039 0.489322,-0.2487 0.959832,-0.51245 1.308594,-0.73828 0.174381,-0.11292 0.320129,-0.21799 0.414062,-0.29688 0.09393,-0.0789 0.127732,-0.16514 0.08984,-0.0664 -0.0041,0.0106 0.0087,-0.34981 -0.259765,-1.10157 -0.268419,-0.75175 -0.757239,-1.89901 -1.53125,-3.61133 -0.341941,-0.75647 -1.02269,-2.26592 -1.513672,-3.35742 -0.76169,-1.69328 -1.563266,-2.90648 -2.330078,-3.61914 -0.766813,-0.71266 -1.444969,-0.92629 -2.128907,-0.76172 z"
     id="path828"
     style="fill:#50e3c2;fill-opacity:1;stroke-width:0.30546188" />
</svg>
