<?xml version="1.0" encoding="utf-8"?>
<!-- Generator: Adobe Illustrator 23.0.1, SVG Export Plug-In . SVG Version: 6.00 Build 0)  -->
<svg version="1.1" id="hucsmn-logo" xmlns="http://www.w3.org/2000/svg" xmlns:xlink="http://www.w3.org/1999/xlink" x="0px"
	 y="0px" viewBox="0 0 1024 1024" style="enable-background:new 0 0 1024 1024;" xml:space="preserve">
<style type="text/css">
	.st0{fill:#FAF7ED;}
	.st1{opacity:0.9;}
	.st2{fill:#FF4F3F;}
	.st3{fill:#2D85FF;}
	.st4{fill:#111111;}
</style>
<rect x="222" y="29.02" class="st0" width="580" height="965.8"/>
<g class="st1">
	<path class="st2" d="M625.93,873.49c-3.13,7.74-8.34,15.88-15.64,24.43c22.23-0.4,37.08-6.72,44.56-18.93
		c7.47-12.22,11.21-31.76,11.21-58.64v-260.2c0-31.76-1.91-56.5-5.73-74.21c-3.83-17.71-12.34-32.16-25.54-43.37
		c-13.21-11.2-33.7-17.61-61.5-19.24c38.22,16.7,57.33,49.27,57.33,97.73v317.62C630.62,854.15,629.06,865.76,625.93,873.49z"/>
	<path class="st2" d="M497.71,409.28c29.19-13.84,58.55-20.77,88.08-20.77c30.57,0,56.89,6.32,78.96,18.93
		c22.06,12.62,39.17,31.46,51.34,56.5c12.16,25.04,18.24,55.89,18.24,92.54v253.48c0,24.43,0.6,41.75,1.82,51.92
		c1.22,10.18,5.91,18.93,14.07,26.26c8.16,7.33,21.63,10.99,40.39,10.99H802V56.85H416.41v411.68
		C441.42,442.87,468.53,423.13,497.71,409.28z"/>
	<polygon class="st2" points="222,56.85 222,120.98 395.04,56.85 	"/>
	<path class="st2" d="M547.23,932.74v-33.59c13.55-0.81,23.89-1.93,31.01-3.36c7.12-1.43,13.46-4.37,19.02-8.86
		c5.55-4.48,9.64-11.3,12.25-20.46c2.61-9.16,3.91-20.86,3.91-35.12V544.88c0-37.87-7.3-65.66-21.89-83.37s-32.14-26.57-52.64-26.57
		c-34.4,0-75.23,25.04-122.48,75.13v327.39c0,23.62,4.77,39.5,14.33,47.64c9.56,8.15,28.22,12.83,56.03,14.05v33.59H229.3H222v62.08
		h580v-62.08H547.23z"/>
	<path class="st2" d="M309.82,870.13c-1.91,8.76-5.99,17.2-12.25,25.35h14.07c7.99,0,15.98-5.19,23.98-15.58
		c7.99-10.38,11.99-25.35,11.99-44.89V246.2c0-28.5-3.13-50.29-9.38-65.36c-5.56-13.03-13.99-23.61-25.28-31.76
		c-11.29-8.14-23.19-12.22-35.7-12.22c-5.56,0-15.11,1.43-28.67,4.28c25.36,10.99,42.39,25.14,51.08,42.45
		c8.68,17.31,13.03,39.8,13.03,67.49v579.04C312.69,848.05,311.73,861.37,309.82,870.13z"/>
	<path class="st2" d="M229.3,899.14c23.27-0.81,40.13-4.17,50.56-10.08c10.42-5.9,15.64-20.05,15.64-42.45V251.08
		c0-55.79-24.5-90.8-73.49-105.06v753.09h7.3V899.14z"/>
</g>
<g class="st1">
	<path class="st3" d="M625.93,845.65c-3.13,7.74-8.34,15.88-15.64,24.43c22.23-0.4,37.08-6.72,44.56-18.93
		c7.47-12.22,11.21-31.76,11.21-58.64v-260.2c0-31.76-1.91-56.5-5.73-74.21c-3.83-17.71-12.34-32.16-25.54-43.37
		c-13.21-11.2-33.7-17.61-61.5-19.24c38.22,16.7,57.33,49.27,57.33,97.73v317.62C630.62,826.32,629.06,837.93,625.93,845.65z"/>
	<path class="st3" d="M497.71,381.45c29.19-13.84,58.55-20.77,88.08-20.77c30.57,0,56.89,6.32,78.96,18.93
		c22.06,12.62,39.17,31.46,51.34,56.5c12.16,25.04,18.24,55.89,18.24,92.54v253.48c0,24.43,0.6,41.75,1.82,51.92
		c1.22,10.18,5.91,18.93,14.07,26.26c8.16,7.33,21.63,10.99,40.39,10.99H802V29.02H416.41v411.68
		C441.42,415.04,468.53,395.29,497.71,381.45z"/>
	<polygon class="st3" points="222,29.02 222,93.15 395.04,29.02 	"/>
	<path class="st3" d="M547.23,904.9v-33.59c13.55-0.81,23.89-1.93,31.01-3.36c7.12-1.43,13.46-4.37,19.02-8.86
		c5.55-4.48,9.64-11.3,12.25-20.46c2.61-9.16,3.91-20.86,3.91-35.12V517.04c0-37.87-7.3-65.66-21.89-83.37
		c-14.59-17.71-32.14-26.57-52.64-26.57c-34.4,0-75.23,25.04-122.48,75.13v327.39c0,23.62,4.77,39.5,14.33,47.64
		c9.56,8.15,28.22,12.83,56.03,14.05v33.59H229.3H222v62.08h580V904.9H547.23z"/>
	<path class="st3" d="M309.82,842.3c-1.91,8.76-5.99,17.2-12.25,25.35h14.07c7.99,0,15.98-5.19,23.98-15.58
		c7.99-10.38,11.99-25.35,11.99-44.89V218.36c0-28.5-3.13-50.29-9.38-65.36c-5.56-13.03-13.99-23.61-25.28-31.76
		c-11.29-8.14-23.19-12.22-35.7-12.22c-5.56,0-15.11,1.43-28.67,4.28c25.36,10.99,42.39,25.14,51.08,42.45
		c8.68,17.31,13.03,39.8,13.03,67.49v579.04C312.69,820.21,311.73,833.54,309.82,842.3z"/>
	<path class="st3" d="M229.3,871.31c23.27-0.81,40.13-4.17,50.56-10.08c10.42-5.9,15.64-20.05,15.64-42.45V223.25
		c0-55.79-24.5-90.8-73.49-105.06v753.09h7.3V871.31z"/>
</g>
<g>
	<path class="st4" d="M625.93,859.65c-3.13,7.74-8.34,15.88-15.64,24.43c22.23-0.4,37.08-6.72,44.56-18.93
		c7.47-12.22,11.21-31.76,11.21-58.64v-260.2c0-31.76-1.91-56.5-5.73-74.21c-3.83-17.71-12.34-32.16-25.54-43.37
		c-13.21-11.2-33.7-17.61-61.5-19.24c38.22,16.7,57.33,49.27,57.33,97.73v317.62C630.62,840.32,629.06,851.93,625.93,859.65z"/>
	<path class="st4" d="M497.71,395.45c29.19-13.84,58.55-20.77,88.08-20.77c30.57,0,56.89,6.32,78.96,18.93
		c22.06,12.62,39.17,31.46,51.34,56.5c12.16,25.04,18.24,55.89,18.24,92.54v253.48c0,24.43,0.6,41.75,1.82,51.92
		c1.22,10.18,5.91,18.93,14.07,26.26c8.16,7.33,21.63,10.99,40.39,10.99H802V43.02H416.41v411.68
		C441.42,429.04,468.53,409.29,497.71,395.45z"/>
	<polygon class="st4" points="222,43.02 222,107.15 395.04,43.02 	"/>
	<path class="st4" d="M547.23,918.9v-33.59c13.55-0.81,23.89-1.93,31.01-3.36c7.12-1.43,13.46-4.37,19.02-8.86
		c5.55-4.48,9.64-11.3,12.25-20.46c2.61-9.16,3.91-20.86,3.91-35.12V531.04c0-37.87-7.3-65.66-21.89-83.37
		c-14.59-17.71-32.14-26.57-52.64-26.57c-34.4,0-75.23,25.04-122.48,75.13v327.39c0,23.62,4.77,39.5,14.33,47.64
		c9.56,8.15,28.22,12.83,56.03,14.05v33.59H229.3H222v62.08h580V918.9H547.23z"/>
	<path class="st4" d="M309.82,856.3c-1.91,8.76-5.99,17.2-12.25,25.35h14.07c7.99,0,15.98-5.19,23.98-15.58
		c7.99-10.38,11.99-25.35,11.99-44.89V232.36c0-28.5-3.13-50.29-9.38-65.36c-5.56-13.03-13.99-23.61-25.28-31.76
		c-11.29-8.14-23.19-12.22-35.7-12.22c-5.56,0-15.11,1.43-28.67,4.28c25.36,10.99,42.39,25.14,51.08,42.45
		c8.68,17.31,13.03,39.8,13.03,67.49v579.04C312.69,834.21,311.73,847.54,309.82,856.3z"/>
	<path class="st4" d="M229.3,885.31c23.27-0.81,40.13-4.17,50.56-10.08c10.42-5.9,15.64-20.05,15.64-42.45V237.25
		c0-55.79-24.5-90.8-73.49-105.06v753.09h7.3V885.31z"/>
</g>
</svg>
